<svg viewBox="0 0 200 200" xmlns="http://www.w3.org/2000/svg">
    <g transform="translate(100, 100)">
        <circle r="35" fill="#6b6b5d"/>
        <rect x="-8" y="-80" width="16" height="55" fill="#6b6b5d"/>
        <rect x="-8" y="-80" width="16" height="55" fill="#6b6b5d" transform="rotate(30)"/>
        <rect x="-8" y="-80" width="16" height="55" fill="#6b6b5d" transform="rotate(60)"/>
        <rect x="-8" y="-80" width="16" height="55" fill="#6b6b5d" transform="rotate(90)"/>
        <rect x="-8" y="-80" width="16" height="55" fill="#6b6b5d" transform="rotate(120)"/>
        <rect x="-8" y="-80" width="16" height="55" fill="#6b6b5d" transform="rotate(150)"/>
        <rect x="-8" y="-80" width="16" height="55" fill="#6b6b5d" transform="rotate(180)"/>
        <rect x="-8" y="-80" width="16" height="55" fill="#6b6b5d" transform="rotate(210)"/>
        <rect x="-8" y="-80" width="16" height="55" fill="#6b6b5d" transform="rotate(240)"/>
        <rect x="-8" y="-80" width="16" height="55" fill="#6b6b5d" transform="rotate(270)"/>
        <rect x="-8" y="-80" width="16" height="55" fill="#6b6b5d" transform="rotate(300)"/>
        <rect x="-8" y="-80" width="16" height="55" fill="#6b6b5d" transform="rotate(330)"/>
    </g>
</svg>
